<svg height='100px' width='100px'  fill="#000000" xmlns:dc="http://purl.org/dc/elements/1.1/" xmlns:cc="http://creativecommons.org/ns#" xmlns:rdf="http://www.w3.org/1999/02/22-rdf-syntax-ns#" xmlns:svg="http://www.w3.org/2000/svg" xmlns="http://www.w3.org/2000/svg" xmlns:sodipodi="http://sodipodi.sourceforge.net/DTD/sodipodi-0.dtd" xmlns:inkscape="http://www.inkscape.org/namespaces/inkscape" version="1.1" x="0px" y="0px" viewBox="0 0 100 100"><g transform="translate(0,-952.36218)"><path style="font-size:medium;font-style:normal;font-variant:normal;font-weight:normal;font-stretch:normal;text-indent:0;text-align:start;text-decoration:none;line-height:normal;letter-spacing:normal;word-spacing:normal;text-transform:none;direction:ltr;block-progression:tb;writing-mode:lr-tb;text-anchor:start;baseline-shift:baseline;opacity:1;color:#000000;fill:#000000;fill-opacity:1;stroke:none;stroke-width:4.00000047999999970;marker:none;visibility:visible;display:inline;overflow:visible;enable-background:accumulate;font-family:Sans;-inkscape-font-specification:Sans" d="M 28 9 C 24.710562 9 22 11.71056 22 15 L 22 22 L 15 22 C 11.710597 22 9 24.7106 9 28 L 9 85 C 9 88.2894 11.710597 91 15 91 L 72 91 C 75.289403 91 78 88.2894 78 85 L 78 78 L 85 78 C 88.289438 78 91 75.2894 91 72 L 91 15 C 91 11.71056 88.289438 9 85 9 L 28 9 z M 28 13 L 85 13 C 86.142627 13 87 13.85737 87 15 L 87 72 C 87 73.1426 86.142627 74 85 74 L 28 74 C 26.857373 74 26 73.1426 26 72 L 26 15 C 26 13.85737 26.857373 13 28 13 z M 56.28125 25.46875 A 2.0002002 2.0002002 0 0 0 54.5 27.5 L 54.5 41.5 L 40.5 41.5 A 2.0002002 2.0002002 0 0 0 40.3125 41.5 A 2.0021961 2.0021961 0 1 0 40.5 45.5 L 54.5 45.5 L 54.5 59.5 A 2.0002002 2.0002002 0 1 0 58.5 59.5 L 58.5 45.5 L 72.5 45.5 A 2.0002002 2.0002002 0 1 0 72.5 41.5 L 58.5 41.5 L 58.5 27.5 A 2.0002002 2.0002002 0 0 0 56.28125 25.46875 z M 15 26 L 22 26 L 22 72 C 22 75.2894 24.710562 78 28 78 L 74 78 L 74 85 C 74 86.1426 73.142661 87 72 87 L 15 87 C 13.857339 87 13 86.1426 13 85 L 13 28 C 13 26.85734 13.857339 26 15 26 z " transform="translate(0,952.36218)"></path></g></svg>