<svg height='100px' width='100px'  fill="#000000" xmlns:dc="http://purl.org/dc/elements/1.1/" xmlns:cc="http://creativecommons.org/ns#" xmlns:rdf="http://www.w3.org/1999/02/22-rdf-syntax-ns#" xmlns:svg="http://www.w3.org/2000/svg" xmlns="http://www.w3.org/2000/svg" xmlns:sodipodi="http://sodipodi.sourceforge.net/DTD/sodipodi-0.dtd" xmlns:inkscape="http://www.inkscape.org/namespaces/inkscape" version="1.1" x="0px" y="0px" viewBox="0 0 100 100"><g transform="translate(0,-952.36218)"><path style="font-size:medium;font-style:normal;font-variant:normal;font-weight:normal;font-stretch:normal;text-indent:0;text-align:start;text-decoration:none;line-height:normal;letter-spacing:normal;word-spacing:normal;text-transform:none;direction:ltr;block-progression:tb;writing-mode:lr-tb;text-anchor:start;baseline-shift:baseline;opacity:1;color:#000000;fill:#000000;fill-opacity:1;stroke:none;stroke-width:6;marker:none;visibility:visible;display:inline;overflow:visible;enable-background:accumulate;font-family:Sans;-inkscape-font-specification:Sans" d="M 52 5 C 48.173892 5 45 8.17389 45 12 L 45 28 A 3.0003 3.0003 0 1 0 51 28 L 51 12 C 51 11.39411 51.39411 11 52 11 L 78 11 C 78.60589 11 79 11.39411 79 12 L 79 88 C 79 88.6059 78.60589 89 78 89 A 3.0003 3.0003 0 1 0 78 95 C 81.826108 95 85 91.8261 85 88 L 85 12 C 85 8.17389 81.826108 5 78 5 L 52 5 z M 57.65625 29.96875 A 3.0003 3.0003 0 0 0 55.6875 34.90625 L 65.65625 47 L 18 47 A 3.0003 3.0003 0 0 0 17.6875 47 A 3.0040663 3.0040663 0 1 0 18 53 L 65.65625 53 L 55.6875 65.09375 A 3.0003 3.0003 0 1 0 60.3125 68.90625 L 74.3125 51.90625 A 3.0003 3.0003 0 0 0 74.3125 48.09375 L 60.3125 31.09375 A 3.0003 3.0003 0 0 0 57.65625 29.96875 z M 47.96875 68.9375 A 3.0003 3.0003 0 0 0 45 72 L 45 88 C 45 91.8261 48.173892 95 52 95 L 68 95 A 3.0003 3.0003 0 1 0 68 89 L 52 89 C 51.39411 89 51 88.6059 51 88 L 51 72 A 3.0003 3.0003 0 0 0 47.96875 68.9375 z " transform="translate(0,952.36218)"></path></g></svg>