<svg height='100px' width='100px'  fill="#000000" xmlns="http://www.w3.org/2000/svg" viewBox="0 0 32 32" x="0px" y="0px"><title>logout</title><g><g data-name="Group"><path d="M24,20a1,1,0,0,1-.71-.29,1,1,0,0,1,0-1.42L25.59,16,23.3,13.71a1,1,0,1,1,1.42-1.42l3,3a1,1,0,0,1,0,1.42l-3,3A1,1,0,0,1,24,20Z"></path></g><g data-name="Group"><path d="M27,17H11a1,1,0,0,1,0-2H27a1,1,0,0,1,0,2Z"></path></g><path d="M21,31H5a1,1,0,0,1-1-1V2A1,1,0,0,1,5,1H21a1,1,0,0,1,1,1v8a1,1,0,0,1-2,0V3H6V29H20V22a1,1,0,0,1,2,0v8A1,1,0,0,1,21,31Z"></path></g></svg>